<svg width="529" height="545" viewBox="0 0 529 545" fill="none" xmlns="http://www.w3.org/2000/svg">
<path d="M528.5 402.5C528.5 480.916 463.813 544.5 384 544.5C304.187 544.5 239.5 480.916 239.5 402.5C239.5 324.084 304.187 260.5 384 260.5C463.813 260.5 528.5 324.084 528.5 402.5Z" fill="#2A2A2A" fill-opacity="0.88" stroke="#2BCCC0"/>
<path d="M426.5 400.5C426.5 439.702 394.05 471.5 354 471.5C313.95 471.5 281.5 439.702 281.5 400.5C281.5 361.298 313.95 329.5 354 329.5C394.05 329.5 426.5 361.298 426.5 400.5Z" fill="#2A2A2A" fill-opacity="0.88" stroke="#2BCCC0"/>
<path d="M402.5 403C402.5 438.615 373.182 467.5 337 467.5C300.818 467.5 271.5 438.615 271.5 403C271.5 367.385 300.818 338.5 337 338.5C373.182 338.5 402.5 367.385 402.5 403Z" fill="#2A2A2A" fill-opacity="0.88" stroke="#2BCCC0"/>
<path d="M393.5 401C393.5 427.224 371.796 448.5 345 448.5C318.204 448.5 296.5 427.224 296.5 401C296.5 374.776 318.204 353.5 345 353.5C371.796 353.5 393.5 374.776 393.5 401Z" fill="#2A2A2A" fill-opacity="0.88" stroke="#2BCCC0"/>
<path d="M262.5 284.5C262.5 362.916 197.813 426.5 118 426.5C38.1866 426.5 -26.5 362.916 -26.5 284.5C-26.5 206.084 38.1866 142.5 118 142.5C197.813 142.5 262.5 206.084 262.5 284.5Z" fill="#2A2A2A" fill-opacity="0.88" stroke="#DA51A0"/>
<path d="M212.5 322.5C212.5 366.674 176.02 402.5 131 402.5C85.98 402.5 49.5 366.674 49.5 322.5C49.5 278.326 85.98 242.5 131 242.5C176.02 242.5 212.5 278.326 212.5 322.5Z" fill="#2A2A2A" fill-opacity="0.88" stroke="#DA51A0"/>
<path d="M200.5 327.5C200.5 352.343 179.915 372.5 154.5 372.5C129.085 372.5 108.5 352.343 108.5 327.5C108.5 302.657 129.085 282.5 154.5 282.5C179.915 282.5 200.5 302.657 200.5 327.5Z" fill="#2A2A2A" fill-opacity="0.88" stroke="#DA51A0"/>
<path d="M191.5 330C191.5 342.416 181.213 352.5 168.5 352.5C155.787 352.5 145.5 342.416 145.5 330C145.5 317.584 155.787 307.5 168.5 307.5C181.213 307.5 191.5 317.584 191.5 330Z" fill="#2A2A2A" fill-opacity="0.88" stroke="#DA51A0"/>
<path d="M489.5 142.5C489.5 220.916 424.813 284.5 345 284.5C265.187 284.5 200.5 220.916 200.5 142.5C200.5 64.0837 265.187 0.5 345 0.5C424.813 0.5 489.5 64.0837 489.5 142.5Z" fill="#2A2A2A" fill-opacity="0.88" stroke="#8A51DA"/>
<path d="M443.5 143.5C443.5 198.719 397.842 243.5 341.5 243.5C285.158 243.5 239.5 198.719 239.5 143.5C239.5 88.2808 285.158 43.5 341.5 43.5C397.842 43.5 443.5 88.2808 443.5 143.5Z" fill="#2A2A2A" fill-opacity="0.88" stroke="#8A51DA"/>
<path d="M388.5 160C388.5 191.748 362.317 217.5 330 217.5C297.683 217.5 271.5 191.748 271.5 160C271.5 128.252 297.683 102.5 330 102.5C362.317 102.5 388.5 128.252 388.5 160Z" fill="#2A2A2A" fill-opacity="0.88" stroke="#8A51DA"/>
</svg>
