<svg width="310" height="24" viewBox="0 0 310 24" fill="none" xmlns="http://www.w3.org/2000/svg">
<path d="M0.5 12.009H137.5M168 12.009H309.5" stroke="white"/>
<path d="M147.273 17.125C146.544 17.125 145.927 16.9661 145.422 16.6484C144.917 16.3307 144.534 15.8802 144.273 15.2969C144.013 14.7083 143.883 14.013 143.883 13.2109C143.883 12.3932 144.013 11.6875 144.273 11.0938C144.534 10.5 144.917 10.0443 145.422 9.72656C145.927 9.40365 146.544 9.24219 147.273 9.24219C148.029 9.24219 148.664 9.40365 149.18 9.72656C149.701 10.0443 150.096 10.5 150.367 11.0938C150.638 11.6875 150.773 12.3932 150.773 13.2109C150.773 14.013 150.638 14.7083 150.367 15.2969C150.096 15.8802 149.701 16.3307 149.18 16.6484C148.664 16.9661 148.029 17.125 147.273 17.125ZM147.273 16.3594C147.893 16.3594 148.388 16.2266 148.758 15.9609C149.128 15.6901 149.396 15.3177 149.562 14.8438C149.729 14.3698 149.812 13.8255 149.812 13.2109C149.812 12.5859 149.729 12.0339 149.562 11.5547C149.396 11.0703 149.128 10.6927 148.758 10.4219C148.388 10.1458 147.893 10.0078 147.273 10.0078C146.68 10.0078 146.206 10.1458 145.852 10.4219C145.497 10.6927 145.24 11.0703 145.078 11.5547C144.922 12.0339 144.844 12.5859 144.844 13.2109C144.844 13.8255 144.922 14.3698 145.078 14.8438C145.24 15.3177 145.497 15.6901 145.852 15.9609C146.206 16.2266 146.68 16.3594 147.273 16.3594ZM155.352 17.125C154.419 17.125 153.766 16.8776 153.391 16.3828C153.016 15.8828 152.828 15.2083 152.828 14.3594V9.39844H153.758V14.2188C153.758 14.6042 153.797 14.9505 153.875 15.2578C153.958 15.5599 154.12 15.7995 154.359 15.9766C154.604 16.1484 154.964 16.2344 155.438 16.2344C156.083 16.2344 156.622 16.1016 157.055 15.8359C157.487 15.5703 157.826 15.2708 158.07 14.9375V9.39844H159V17H158.109L158.07 15.8125C157.831 16.1094 157.487 16.4036 157.039 16.6953C156.596 16.9818 156.034 17.125 155.352 17.125Z" fill="white"/>
</svg>
