<svg width="90" height="82" viewBox="0 0 90 82" fill="none" xmlns="http://www.w3.org/2000/svg">
<path d="M11.25 20.3423C11.25 18.544 12.0402 16.8192 13.4467 15.5476C14.8532 14.2759 16.7609 13.5615 18.75 13.5615H33.4875C34.7219 13.5614 35.9373 13.8367 37.0259 14.3631C38.1144 14.8894 39.0424 15.6506 39.7275 16.579L42.7725 20.7153C43.4576 21.6437 44.3856 22.4049 45.4741 22.9312C46.5627 23.4576 47.7781 23.7329 49.0125 23.7328H71.25C73.2391 23.7328 75.1468 24.4472 76.5533 25.7188C77.9598 26.9905 78.75 28.7152 78.75 30.5136V61.0273C78.75 62.8257 77.9598 64.5504 76.5533 65.822C75.1468 67.0937 73.2391 67.8081 71.25 67.8081H18.75C16.7609 67.8081 14.8532 67.0937 13.4467 65.822C12.0402 64.5504 11.25 62.8257 11.25 61.0273V20.3423Z" stroke="#2BCCC0" stroke-width="4" stroke-linecap="round" stroke-linejoin="round"/>
</svg>
