<svg width="90" height="90" viewBox="0 0 90 90" fill="none" xmlns="http://www.w3.org/2000/svg">
<path d="M71.25 15H18.75C16.7609 15 14.8532 15.7902 13.4467 17.1967C12.0402 18.6032 11.25 20.5109 11.25 22.5V60C11.25 61.9891 12.0402 63.8968 13.4467 65.3033C14.8532 66.7098 16.7609 67.5 18.75 67.5H30.705C34.455 67.5 37.5 70.5413 37.5 74.295C37.5 77.325 41.16 78.84 43.3013 76.6987L50.3025 69.6975C51.7087 68.2909 53.616 67.5004 55.605 67.5H71.25C73.2391 67.5 75.1468 66.7098 76.5533 65.3033C77.9598 63.8968 78.75 61.9891 78.75 60V22.5C78.75 20.5109 77.9598 18.6032 76.5533 17.1967C75.1468 15.7902 73.2391 15 71.25 15Z" fill="#2BCCC0" stroke="#2BCCC0" stroke-width="2" stroke-linecap="round" stroke-linejoin="round"/>
</svg>
