<svg width="80" height="80" viewBox="0 0 80 80" fill="none" xmlns="http://www.w3.org/2000/svg">
<path d="M25 22.5H35M25 40H55M25 50H55M25 60H35M20 72.5H60C61.3261 72.5 62.5979 71.9732 63.5355 71.0355C64.4732 70.0979 65 68.8261 65 67.5V12.5C65 11.1739 64.4732 9.90215 63.5355 8.96447C62.5979 8.02678 61.3261 7.5 60 7.5H20C18.6739 7.5 17.4021 8.02678 16.4645 8.96447C15.5268 9.90215 15 11.1739 15 12.5V67.5C15 68.8261 15.5268 70.0979 16.4645 71.0355C17.4021 71.9732 18.6739 72.5 20 72.5Z" stroke="#2BCCC0" stroke-width="4" stroke-linecap="round" stroke-linejoin="round"/>
<path d="M55 23.75C55.6904 23.75 56.25 23.1904 56.25 22.5C56.25 21.8096 55.6904 21.25 55 21.25C54.3096 21.25 53.75 21.8096 53.75 22.5C53.75 23.1904 54.3096 23.75 55 23.75Z" fill="#2BCCC0" stroke="#2BCCC0"/>
</svg>
