<svg width="72" height="67" viewBox="0 0 72 67" fill="none" xmlns="http://www.w3.org/2000/svg">
<path d="M62.25 2H9.75C7.76088 2 5.85322 2.79018 4.4467 4.1967C3.04018 5.60322 2.25 7.51088 2.25 9.5V47C2.25 48.9891 3.04018 50.8968 4.4467 52.3033C5.85322 53.7098 7.76088 54.5 9.75 54.5H21.705C25.455 54.5 28.5 57.5413 28.5 61.295C28.5 64.325 32.16 65.84 34.3012 63.6988L41.3025 56.6975C42.7087 55.2909 44.616 54.5004 46.605 54.5H62.25C64.2391 54.5 66.1468 53.7098 67.5533 52.3033C68.9598 50.8968 69.75 48.9891 69.75 47V9.5C69.75 7.51088 68.9598 5.60322 67.5533 4.1967C66.1468 2.79018 64.2391 2 62.25 2Z" stroke="#2BCCC0" stroke-width="4" stroke-linecap="round" stroke-linejoin="round"/>
</svg>
